<svg xmlns="http://www.w3.org/2000/svg" width="512" height="512" viewBox="0 0 512 512">
  <defs>
    <linearGradient id="bg" x1="0" y1="0" x2="1" y2="1">
      <stop offset="0" stop-color="#3B82F6"/>
      <stop offset="1" stop-color="#1D4ED8"/>
    </linearGradient>
  </defs>

  <rect x="0" y="0" width="512" height="512" rx="96" fill="url(#bg)"/>

  <svg x="112" y="112" width="288" height="288" viewBox="0 0 24 24" fill="none"
       stroke="#FFFFFF" stroke-width="1.6" stroke-linecap="round" stroke-linejoin="round">
    <path d="M20 13c0 5-3.5 7.5-7.66 8.95a1 1 0 0 1-.67-.01C7.5 20.5 4 18 4 13V6a1 1 0 0 1 1-1c2 0 4.5-1.2 6.24-2.72a1.17 1.17 0 0 1 1.52 0C14.51 3.81 17 5 19 5a1 1 0 0 1 1 1z"/>
    <path d="m9 12 2 2 4-4"/>
  </svg>
</svg>
